<svg 
 xmlns="http://www.w3.org/2000/svg"
 xmlns:xlink="http://www.w3.org/1999/xlink"
 width="1480px" height="459px">
<path fill-rule="evenodd"  fill="rgb(255, 255, 255)"
 d="M1449.687,58.864 C1446.189,60.669 1441.394,62.164 1435.301,63.349 C1440.180,64.744 1443.735,66.137 1445.964,67.529 C1447.470,68.458 1449.653,70.444 1452.515,73.489 C1455.376,76.534 1457.289,78.882 1458.253,80.533 L1478.089,113.383 L1431.806,113.383 L1409.911,78.738 C1407.138,74.253 1404.667,71.341 1402.497,70.000 C1399.543,68.248 1396.197,67.371 1392.460,67.371 L1388.843,67.371 L1388.843,113.383 L1347.702,113.383 L1347.702,0.014 L1415.970,0.014 C1428.629,0.014 1438.304,0.942 1444.995,2.798 C1451.686,4.654 1457.080,8.095 1461.180,13.122 C1465.279,18.148 1467.329,24.271 1467.329,31.488 C1467.329,37.779 1465.761,43.204 1462.624,47.767 C1459.488,52.329 1455.174,56.029 1449.687,58.864 ZM1422.118,25.843 C1419.406,23.884 1414.311,22.904 1406.837,22.904 L1388.843,22.904 L1388.843,45.949 L1406.114,45.949 C1407.982,45.949 1411.598,45.435 1416.964,44.403 C1419.677,43.939 1421.892,42.753 1423.610,40.845 C1425.328,38.939 1426.187,36.747 1426.187,34.272 C1426.187,30.612 1424.831,27.803 1422.118,25.843 ZM1213.336,0.014 L1323.107,0.014 L1323.107,24.219 L1254.387,24.219 L1254.387,42.237 L1318.134,42.237 L1318.134,65.360 L1254.387,65.360 L1254.387,87.709 L1325.096,87.709 L1325.096,113.383 L1213.336,113.383 L1213.336,0.014 ZM1153.115,113.383 L1112.155,113.383 L1112.155,28.008 L1070.380,28.008 L1070.380,0.014 L1194.890,0.014 L1194.890,28.008 L1153.115,28.008 L1153.115,113.383 ZM1019.383,113.383 L978.422,113.383 L978.422,28.008 L936.647,28.008 L936.647,0.014 L1061.157,0.014 L1061.157,28.008 L1019.383,28.008 L1019.383,113.383 ZM902.796,113.383 L896.164,94.669 L849.661,94.669 L843.200,113.383 L801.377,113.383 L851.199,0.014 L895.879,0.014 L945.689,113.383 L902.796,113.383 ZM873.036,29.400 L858.557,70.154 L887.667,70.154 L873.036,29.400 ZM754.991,26.926 L729.143,113.383 L698.779,113.383 L672.979,26.926 L672.979,113.383 L639.433,113.383 L639.433,0.014 L693.301,0.014 L714.076,68.994 L734.701,0.014 L788.537,0.014 L788.537,113.383 L754.991,113.383 L754.991,26.926 ZM514.122,113.383 L486.173,66.760 L465.010,85.719 L465.010,113.383 L424.050,113.383 L424.050,0.014 L465.010,0.014 L465.010,42.856 L507.917,0.014 L562.394,0.014 L514.022,42.805 L564.564,113.383 L514.122,113.383 ZM385.184,73.489 C388.045,76.534 389.958,78.882 390.922,80.533 L410.758,113.383 L364.475,113.383 L342.580,78.738 C339.807,74.253 337.336,71.341 335.166,70.000 C332.212,68.248 328.866,67.371 325.129,67.371 L321.512,67.371 L321.512,113.383 L280.371,113.383 L280.371,0.014 L348.638,0.014 C361.297,0.014 370.973,0.942 377.664,2.798 C384.355,4.654 389.749,8.095 393.849,13.122 C397.948,18.148 399.998,24.271 399.998,31.488 C399.998,37.779 398.429,43.204 395.293,47.767 C392.156,52.329 387.843,56.029 382.356,58.864 C378.858,60.669 374.062,62.164 367.970,63.349 C372.849,64.744 376.403,66.137 378.633,67.529 C380.139,68.458 382.322,70.444 385.184,73.489 ZM354.787,25.843 C352.074,23.884 346.980,22.904 339.506,22.904 L321.512,22.904 L321.512,45.949 L338.783,45.949 C340.650,45.949 344.267,45.435 349.633,44.403 C352.346,43.939 354.561,42.753 356.279,40.845 C357.997,38.939 358.856,36.747 358.856,34.272 C358.856,30.612 357.500,27.803 354.787,25.843 ZM217.282,94.669 L170.779,94.669 L164.318,113.383 L122.495,113.383 L172.317,0.014 L216.997,0.014 L266.807,113.383 L223.914,113.383 L217.282,94.669 ZM194.154,29.400 L179.675,70.154 L208.785,70.154 L194.154,29.400 ZM103.959,101.281 C98.231,105.793 92.083,108.795 85.513,110.290 C76.530,112.353 68.392,113.383 61.099,113.383 L0.246,113.383 L0.246,0.014 L61.099,0.014 C73.094,0.014 82.785,1.406 90.170,4.190 C97.553,6.974 103.657,10.970 108.480,16.176 C113.302,21.384 116.799,27.442 118.969,34.350 C121.139,41.259 122.224,48.579 122.224,56.312 C122.224,68.428 120.610,77.824 117.386,84.500 C114.161,91.177 109.685,96.770 103.959,101.281 ZM74.210,32.339 C69.628,27.906 62.033,25.688 51.424,25.688 L41.207,25.688 L41.207,87.632 L51.243,87.632 C59.802,87.632 65.892,86.820 69.508,85.196 C73.125,83.572 75.958,80.737 78.008,76.689 C80.057,72.642 81.082,66.082 81.082,57.008 C81.082,44.996 78.791,36.773 74.210,32.339 Z"/>
<path fill-rule="evenodd"  fill="rgb(255, 255, 255)"
 d="M1465.300,445.307 L1465.300,458.394 L1454.402,458.394 L1454.402,445.307 L1440.696,427.148 L1452.775,427.148 L1459.865,437.689 L1466.969,427.148 L1478.983,427.148 L1465.300,445.307 ZM1413.595,441.238 L1413.595,458.394 L1403.369,458.394 L1403.369,427.148 L1413.523,427.148 L1426.773,444.435 L1426.773,427.148 L1437.023,427.148 L1437.023,458.394 L1426.773,458.394 L1413.595,441.238 ZM1389.363,456.976 C1386.746,458.277 1383.485,458.927 1379.581,458.927 C1375.612,458.927 1372.328,458.365 1369.727,457.243 C1367.127,456.121 1365.018,454.344 1363.402,451.914 C1361.786,449.485 1360.978,446.444 1360.978,442.792 C1360.978,437.691 1362.578,433.720 1365.779,430.878 C1368.979,428.036 1373.436,426.615 1379.149,426.615 C1385.006,426.615 1389.519,428.012 1392.687,430.804 C1395.856,433.596 1397.440,437.507 1397.440,442.537 C1397.440,446.189 1396.748,449.183 1395.364,451.520 C1393.979,453.858 1391.979,455.676 1389.363,456.976 ZM1384.562,435.961 C1383.226,434.605 1381.413,433.926 1379.125,433.926 C1376.932,433.926 1375.172,434.615 1373.844,435.993 C1372.516,437.372 1371.852,439.652 1371.852,442.835 C1371.852,445.989 1372.512,448.256 1373.832,449.634 C1375.152,451.012 1376.948,451.701 1379.221,451.701 C1381.557,451.701 1383.365,451.027 1384.646,449.677 C1385.926,448.327 1386.566,445.904 1386.566,442.409 C1386.566,439.467 1385.898,437.318 1384.562,435.961 ZM1346.503,434.565 L1339.641,458.394 L1331.580,458.394 L1324.731,434.565 L1324.731,458.394 L1315.826,458.394 L1315.826,427.148 L1330.126,427.148 L1335.641,446.160 L1341.117,427.148 L1355.409,427.148 L1355.409,458.394 L1346.503,458.394 L1346.503,434.565 ZM1280.419,427.148 L1309.561,427.148 L1309.561,433.819 L1291.317,433.819 L1291.317,438.785 L1308.240,438.785 L1308.240,445.158 L1291.317,445.158 L1291.317,451.318 L1310.089,451.318 L1310.089,458.394 L1280.419,458.394 L1280.419,427.148 ZM1270.174,447.399 C1270.933,448.238 1271.441,448.885 1271.697,449.340 L1276.963,458.394 L1264.676,458.394 L1258.864,448.845 C1258.127,447.609 1257.471,446.807 1256.895,446.437 C1256.111,445.954 1255.223,445.712 1254.231,445.712 L1253.271,445.712 L1253.271,458.394 L1242.349,458.394 L1242.349,427.148 L1260.472,427.148 C1263.832,427.148 1266.401,427.404 1268.177,427.916 C1269.953,428.427 1271.386,429.376 1272.474,430.761 C1273.562,432.146 1274.106,433.834 1274.106,435.823 C1274.106,437.557 1273.690,439.052 1272.857,440.309 C1272.025,441.567 1270.879,442.587 1269.423,443.368 C1268.494,443.865 1267.221,444.277 1265.604,444.604 C1266.899,444.988 1267.843,445.372 1268.434,445.756 C1268.834,446.012 1269.414,446.559 1270.174,447.399 ZM1262.104,434.267 C1261.384,433.727 1260.031,433.457 1258.047,433.457 L1253.271,433.457 L1253.271,439.808 L1257.855,439.808 C1258.351,439.808 1259.311,439.667 1260.736,439.382 C1261.456,439.254 1262.044,438.928 1262.500,438.402 C1262.956,437.876 1263.184,437.272 1263.184,436.590 C1263.184,435.581 1262.824,434.807 1262.104,434.267 ZM1206.678,427.148 L1235.819,427.148 L1235.819,433.819 L1217.576,433.819 L1217.576,438.785 L1234.499,438.785 L1234.499,445.158 L1217.576,445.158 L1217.576,451.318 L1236.348,451.318 L1236.348,458.394 L1206.678,458.394 L1206.678,427.148 ZM1184.858,451.680 C1186.938,451.680 1188.511,451.162 1189.575,450.124 C1190.639,449.087 1191.411,447.581 1191.892,445.606 L1201.421,448.163 C1200.781,450.536 1199.773,452.519 1198.397,454.110 C1197.020,455.701 1195.312,456.902 1193.272,457.712 C1191.231,458.522 1188.635,458.927 1185.482,458.927 C1181.657,458.927 1178.533,458.433 1176.109,457.446 C1173.684,456.460 1171.592,454.724 1169.832,452.239 C1168.071,449.754 1167.191,446.573 1167.191,442.696 C1167.191,437.528 1168.739,433.556 1171.836,430.780 C1174.933,428.004 1179.313,426.615 1184.978,426.615 C1189.411,426.615 1192.896,427.411 1195.432,429.003 C1197.968,430.594 1199.853,433.038 1201.085,436.334 L1191.484,438.231 C1191.147,437.280 1190.795,436.583 1190.427,436.143 C1189.819,435.404 1189.075,434.835 1188.195,434.437 C1187.315,434.040 1186.330,433.841 1185.242,433.841 C1182.778,433.841 1180.889,434.721 1179.577,436.481 C1178.585,437.786 1178.089,439.837 1178.089,442.632 C1178.089,446.096 1178.681,448.469 1179.865,449.754 C1181.049,451.038 1182.714,451.680 1184.858,451.680 ZM1134.833,458.927 L1143.623,426.615 L1148.612,426.615 L1139.773,458.927 L1134.833,458.927 ZM1121.175,458.927 L1129.964,426.615 L1134.953,426.615 L1126.114,458.927 L1121.175,458.927 ZM1077.703,441.238 L1077.703,458.394 L1067.477,458.394 L1067.477,427.148 L1077.631,427.148 L1090.882,444.435 L1090.882,427.148 L1101.131,427.148 L1101.131,458.394 L1090.882,458.394 L1077.703,441.238 ZM1053.471,456.976 C1050.854,458.277 1047.594,458.927 1043.689,458.927 C1039.720,458.927 1036.436,458.365 1033.835,457.243 C1031.235,456.121 1029.126,454.344 1027.510,451.914 C1025.894,449.485 1025.086,446.444 1025.086,442.792 C1025.086,437.691 1026.686,433.720 1029.887,430.878 C1033.087,428.036 1037.544,426.615 1043.257,426.615 C1049.114,426.615 1053.627,428.012 1056.795,430.804 C1059.964,433.596 1061.548,437.507 1061.548,442.537 C1061.548,446.189 1060.856,449.183 1059.472,451.520 C1058.088,453.858 1056.087,455.676 1053.471,456.976 ZM1048.670,435.961 C1047.334,434.605 1045.521,433.926 1043.233,433.926 C1041.040,433.926 1039.280,434.615 1037.952,435.993 C1036.624,437.372 1035.960,439.652 1035.960,442.835 C1035.960,445.989 1036.620,448.256 1037.940,449.634 C1039.260,451.012 1041.057,451.701 1043.329,451.701 C1045.665,451.701 1047.474,451.027 1048.754,449.677 C1050.034,448.327 1050.674,445.904 1050.674,442.409 C1050.674,439.467 1050.006,437.318 1048.670,435.961 ZM1007.755,427.148 L1018.653,427.148 L1018.653,458.394 L1007.755,458.394 L1007.755,427.148 ZM991.312,458.394 L980.438,458.394 L980.438,434.864 L969.348,434.864 L969.348,427.148 L1002.402,427.148 L1002.402,434.864 L991.312,434.864 L991.312,458.394 ZM960.361,458.394 L958.601,453.236 L946.255,453.236 L944.540,458.394 L933.437,458.394 L946.664,427.148 L958.525,427.148 L971.748,458.394 L960.361,458.394 ZM952.461,435.247 L948.617,446.480 L956.345,446.480 L952.461,435.247 ZM901.440,427.148 L930.581,427.148 L930.581,433.819 L912.338,433.819 L912.338,438.785 L929.261,438.785 L929.261,445.158 L912.338,445.158 L912.338,451.318 L931.109,451.318 L931.109,458.394 L901.440,458.394 L901.440,427.148 ZM891.194,447.399 C891.954,448.238 892.461,448.885 892.717,449.340 L897.983,458.394 L885.696,458.394 L879.884,448.845 C879.148,447.609 878.492,446.807 877.916,446.437 C877.131,445.954 876.243,445.712 875.251,445.712 L874.291,445.712 L874.291,458.394 L863.369,458.394 L863.369,427.148 L881.492,427.148 C884.853,427.148 887.421,427.404 889.198,427.916 C890.974,428.427 892.406,429.376 893.494,430.761 C894.582,432.146 895.127,433.834 895.127,435.823 C895.127,437.557 894.710,439.052 893.878,440.309 C893.045,441.567 891.900,442.587 890.443,443.368 C889.514,443.865 888.242,444.277 886.624,444.604 C887.919,444.988 888.863,445.372 889.455,445.756 C889.855,446.012 890.434,446.559 891.194,447.399 ZM883.125,434.267 C882.404,433.727 881.052,433.457 879.068,433.457 L874.291,433.457 L874.291,439.808 L878.876,439.808 C879.372,439.808 880.332,439.667 881.756,439.382 C882.476,439.254 883.065,438.928 883.521,438.402 C883.977,437.876 884.205,437.272 884.205,436.590 C884.205,435.581 883.845,434.807 883.125,434.267 ZM841.381,451.680 C843.461,451.680 845.033,451.162 846.098,450.124 C847.162,449.087 847.934,447.581 848.414,445.606 L857.944,448.163 C857.304,450.536 856.296,452.519 854.919,454.110 C853.543,455.701 851.835,456.902 849.795,457.712 C847.754,458.522 845.158,458.927 842.005,458.927 C838.180,458.927 835.056,458.433 832.632,457.446 C830.207,456.460 828.115,454.724 826.354,452.239 C824.594,449.754 823.714,446.573 823.714,442.696 C823.714,437.528 825.262,433.556 828.359,430.780 C831.455,428.004 835.836,426.615 841.501,426.615 C845.934,426.615 849.418,427.411 851.955,429.003 C854.491,430.594 856.375,433.038 857.608,436.334 L848.006,438.231 C847.670,437.280 847.318,436.583 846.950,436.143 C846.342,435.404 845.598,434.835 844.718,434.437 C843.837,434.040 842.853,433.841 841.765,433.841 C839.301,433.841 837.412,434.721 836.100,436.481 C835.108,437.786 834.612,439.837 834.612,442.632 C834.612,446.096 835.204,448.469 836.388,449.754 C837.572,451.038 839.236,451.680 841.381,451.680 ZM791.356,458.927 L800.145,426.615 L805.135,426.615 L796.295,458.927 L791.356,458.927 ZM777.698,458.927 L786.487,426.615 L791.476,426.615 L782.637,458.927 L777.698,458.927 ZM748.869,458.394 L737.995,458.394 L737.995,434.864 L726.905,434.864 L726.905,427.148 L759.959,427.148 L759.959,434.864 L748.869,434.864 L748.869,458.394 ZM710.702,446.799 L704.749,446.799 L704.749,458.394 L693.827,458.394 L693.827,427.148 L711.902,427.148 C715.839,427.148 718.787,427.980 720.748,429.642 C722.708,431.304 723.688,433.670 723.688,436.739 C723.688,439.894 722.620,442.359 720.484,444.135 C718.347,445.911 715.086,446.799 710.702,446.799 ZM711.998,434.523 C711.262,433.841 709.877,433.500 707.845,433.500 L704.749,433.500 L704.749,440.469 L707.413,440.469 C709.509,440.469 710.982,440.146 711.830,439.499 C712.678,438.853 713.102,438.025 713.102,437.016 C713.102,436.036 712.734,435.205 711.998,434.523 ZM658.348,427.148 L687.490,427.148 L687.490,433.819 L669.246,433.819 L669.246,438.785 L686.169,438.785 L686.169,445.158 L669.246,445.158 L669.246,451.318 L688.018,451.318 L688.018,458.394 L658.348,458.394 L658.348,427.148 ZM636.529,451.680 C638.609,451.680 640.181,451.162 641.245,450.124 C642.309,449.087 643.082,447.581 643.562,445.606 L653.091,448.163 C652.451,450.536 651.443,452.519 650.067,454.110 C648.690,455.701 646.982,456.902 644.942,457.712 C642.902,458.522 640.305,458.927 637.153,458.927 C633.328,458.927 630.203,458.433 627.779,457.446 C625.355,456.460 623.262,454.724 621.502,452.239 C619.741,449.754 618.861,446.573 618.861,442.696 C618.861,437.528 620.410,433.556 623.506,430.780 C626.603,428.004 630.984,426.615 636.649,426.615 C641.081,426.615 644.566,427.411 647.102,429.003 C649.639,430.594 651.523,433.038 652.755,436.334 L643.154,438.231 C642.818,437.280 642.465,436.583 642.098,436.143 C641.489,435.404 640.745,434.835 639.865,434.437 C638.985,434.040 638.001,433.841 636.913,433.841 C634.448,433.841 632.560,434.721 631.248,436.481 C630.255,437.786 629.759,439.837 629.759,442.632 C629.759,446.096 630.351,448.469 631.536,449.754 C632.720,451.038 634.384,451.680 636.529,451.680 ZM589.480,441.238 L589.480,458.394 L579.254,458.394 L579.254,427.148 L589.408,427.148 L602.658,444.435 L602.658,427.148 L612.908,427.148 L612.908,458.394 L602.658,458.394 L589.480,441.238 ZM565.248,456.976 C562.631,458.277 559.371,458.927 555.466,458.927 C551.497,458.927 548.213,458.365 545.612,457.243 C543.012,456.121 540.903,454.344 539.287,451.914 C537.671,449.485 536.863,446.444 536.863,442.792 C536.863,437.691 538.463,433.720 541.664,430.878 C544.864,428.036 549.321,426.615 555.034,426.615 C560.891,426.615 565.404,428.012 568.572,430.804 C571.741,433.596 573.325,437.507 573.325,442.537 C573.325,446.189 572.633,449.183 571.249,451.520 C569.865,453.858 567.864,455.676 565.248,456.976 ZM560.447,435.961 C559.111,434.605 557.298,433.926 555.010,433.926 C552.817,433.926 551.057,434.615 549.729,435.993 C548.401,437.372 547.737,439.652 547.737,442.835 C547.737,445.989 548.397,448.256 549.717,449.634 C551.037,451.012 552.833,451.701 555.106,451.701 C557.442,451.701 559.251,451.027 560.531,449.677 C561.811,448.327 562.451,445.904 562.451,442.409 C562.451,439.467 561.783,437.318 560.447,435.961 ZM516.387,451.680 C518.467,451.680 520.040,451.162 521.104,450.124 C522.168,449.087 522.940,447.581 523.420,445.606 L532.950,448.163 C532.310,450.536 531.302,452.519 529.926,454.110 C528.549,455.701 526.841,456.902 524.801,457.712 C522.760,458.522 520.164,458.927 517.011,458.927 C513.186,458.927 510.062,458.433 507.638,457.446 C505.213,456.460 503.121,454.724 501.360,452.239 C499.600,449.754 498.720,446.573 498.720,442.696 C498.720,437.528 500.268,433.556 503.365,430.780 C506.461,428.004 510.842,426.615 516.507,426.615 C520.940,426.615 524.424,427.411 526.961,429.003 C529.497,430.594 531.382,433.038 532.614,436.334 L523.012,438.231 C522.676,437.280 522.324,436.583 521.956,436.143 C521.348,435.404 520.604,434.835 519.724,434.437 C518.843,434.040 517.859,433.841 516.771,433.841 C514.307,433.841 512.418,434.721 511.106,436.481 C510.114,437.786 509.618,439.837 509.618,442.632 C509.618,446.096 510.210,448.469 511.394,449.754 C512.578,451.038 514.242,451.680 516.387,451.680 ZM466.362,458.927 L475.152,426.615 L480.141,426.615 L471.301,458.927 L466.362,458.927 ZM452.704,458.927 L461.493,426.615 L466.482,426.615 L457.643,458.927 L452.704,458.927 ZM409.232,441.238 L409.232,458.394 L399.006,458.394 L399.006,427.148 L409.160,427.148 L422.410,444.435 L422.410,427.148 L432.660,427.148 L432.660,458.394 L422.410,458.394 L409.232,441.238 ZM375.146,458.927 C370.969,458.927 367.564,458.295 364.932,457.030 C362.300,455.765 360.259,453.883 358.811,451.382 C357.363,448.881 356.639,446.011 356.639,442.771 C356.639,439.361 357.431,436.395 359.015,433.873 C360.599,431.351 362.919,429.436 365.976,428.129 C368.361,427.120 371.569,426.615 375.602,426.615 C379.491,426.615 382.399,426.928 384.328,427.553 C386.256,428.179 387.856,429.148 389.128,430.463 C390.401,431.777 391.357,433.443 391.997,435.461 L381.507,437.123 C381.075,435.944 380.343,435.042 379.311,434.416 C378.278,433.791 376.962,433.478 375.362,433.478 C372.977,433.478 371.077,434.214 369.661,435.684 C368.245,437.155 367.537,439.482 367.537,442.664 C367.537,446.046 368.253,448.462 369.685,449.911 C371.117,451.360 373.113,452.085 375.674,452.085 C376.890,452.085 378.050,451.929 379.155,451.616 C380.259,451.304 381.523,450.771 382.947,450.018 L382.947,447.076 L375.674,447.076 L375.674,440.576 L392.477,440.576 L392.477,453.897 C389.260,455.843 386.416,457.168 383.943,457.872 C381.471,458.575 378.538,458.927 375.146,458.927 ZM339.284,427.148 L350.181,427.148 L350.181,458.394 L339.284,458.394 L339.284,427.148 ZM317.272,437.379 C322.024,438.288 325.429,439.208 327.485,440.139 C329.542,441.070 331.038,442.224 331.974,443.602 C332.910,444.981 333.378,446.522 333.378,448.227 C333.378,450.231 332.754,452.078 331.506,453.769 C330.258,455.460 328.513,456.742 326.273,457.616 C324.033,458.490 321.208,458.927 317.800,458.927 C311.814,458.927 307.670,457.904 305.365,455.857 C303.061,453.811 301.757,451.211 301.453,448.057 L311.799,447.481 C312.023,448.973 312.479,450.110 313.167,450.891 C314.287,452.156 315.887,452.788 317.968,452.788 C319.520,452.788 320.716,452.465 321.556,451.819 C322.397,451.172 322.817,450.423 322.817,449.570 C322.817,448.760 322.416,448.035 321.616,447.396 C320.816,446.757 318.960,446.153 316.047,445.584 C311.278,444.633 307.878,443.368 305.846,441.791 C303.797,440.213 302.773,438.203 302.773,435.759 C302.773,434.153 303.297,432.637 304.345,431.209 C305.393,429.781 306.970,428.658 309.074,427.841 C311.178,427.024 314.063,426.615 317.728,426.615 C322.224,426.615 325.653,427.358 328.014,428.843 C330.374,430.328 331.778,432.690 332.226,435.929 L321.976,436.462 C321.704,435.056 321.132,434.033 320.260,433.393 C319.388,432.754 318.184,432.434 316.647,432.434 C315.383,432.434 314.431,432.672 313.791,433.148 C313.151,433.624 312.831,434.203 312.831,434.885 C312.831,435.383 313.095,435.830 313.623,436.228 C314.135,436.640 315.351,437.024 317.272,437.379 ZM267.823,427.148 L296.964,427.148 L296.964,433.819 L278.721,433.819 L278.721,438.785 L295.644,438.785 L295.644,445.158 L278.721,445.158 L278.721,451.318 L297.492,451.318 L297.492,458.394 L267.823,458.394 L267.823,427.148 ZM257.285,455.058 C255.764,456.302 254.132,457.129 252.388,457.541 C250.003,458.110 247.843,458.394 245.907,458.394 L229.752,458.394 L229.752,427.148 L245.907,427.148 C249.091,427.148 251.664,427.532 253.624,428.299 C255.584,429.067 257.205,430.168 258.485,431.603 C259.765,433.038 260.694,434.708 261.270,436.611 C261.846,438.516 262.134,440.533 262.134,442.664 C262.134,446.004 261.705,448.593 260.850,450.433 C259.993,452.273 258.805,453.815 257.285,455.058 ZM249.387,436.057 C248.171,434.835 246.155,434.224 243.338,434.224 L240.626,434.224 L240.626,451.296 L243.290,451.296 C245.563,451.296 247.179,451.073 248.139,450.625 C249.099,450.177 249.851,449.396 250.396,448.281 C250.940,447.165 251.212,445.357 251.212,442.856 C251.212,439.546 250.603,437.280 249.387,436.057 ZM195.978,458.927 L204.767,426.615 L209.756,426.615 L200.917,458.927 L195.978,458.927 ZM182.320,458.927 L191.109,426.615 L196.098,426.615 L187.259,458.927 L182.320,458.927 ZM153.490,458.394 L142.616,458.394 L142.616,434.864 L131.526,434.864 L131.526,427.148 L164.580,427.148 L164.580,434.864 L153.490,434.864 L153.490,458.394 ZM118.156,434.565 L111.294,458.394 L103.233,458.394 L96.384,434.565 L96.384,458.394 L87.479,458.394 L87.479,427.148 L101.779,427.148 L107.294,446.160 L112.770,427.148 L127.062,427.148 L127.062,458.394 L118.156,458.394 L118.156,434.565 ZM63.810,458.927 C59.634,458.927 56.229,458.295 53.597,457.030 C50.964,455.765 48.924,453.883 47.475,451.382 C46.027,448.881 45.303,446.011 45.303,442.771 C45.303,439.361 46.095,436.395 47.680,433.873 C49.264,431.351 51.584,429.436 54.641,428.129 C57.025,427.120 60.234,426.615 64.266,426.615 C68.155,426.615 71.063,426.928 72.992,427.553 C74.920,428.179 76.521,429.148 77.793,430.463 C79.065,431.777 80.021,433.443 80.661,435.461 L70.172,437.123 C69.739,435.944 69.007,435.042 67.975,434.416 C66.943,433.791 65.626,433.478 64.026,433.478 C61.642,433.478 59.742,434.214 58.325,435.684 C56.909,437.155 56.201,439.482 56.201,442.664 C56.201,446.046 56.917,448.462 58.349,449.911 C59.781,451.360 61.778,452.085 64.338,452.085 C65.554,452.085 66.715,451.929 67.819,451.616 C68.923,451.304 70.187,450.771 71.612,450.018 L71.612,447.076 L64.338,447.076 L64.338,440.576 L81.141,440.576 L81.141,453.897 C77.925,455.843 75.080,457.168 72.608,457.872 C70.136,458.575 67.203,458.927 63.810,458.927 ZM30.805,434.565 L23.943,458.394 L15.882,458.394 L9.033,434.565 L9.033,458.394 L0.127,458.394 L0.127,427.148 L14.428,427.148 L19.943,446.160 L25.418,427.148 L39.710,427.148 L39.710,458.394 L30.805,458.394 L30.805,434.565 Z"/>
<path fill-rule="evenodd"  fill="rgb(255, 255, 255)"
 d="M1479.948,414.437 L1436.764,414.437 L1412.836,372.409 L1394.718,389.499 L1394.718,414.437 L1359.651,414.437 L1359.651,312.242 L1394.718,312.242 L1394.718,350.861 L1431.451,312.242 L1478.091,312.242 L1436.678,350.816 L1479.948,414.437 ZM1304.689,385.995 L1338.363,385.995 L1338.363,414.437 L1304.689,414.437 L1304.689,385.995 ZM1233.548,392.478 C1240.256,392.478 1245.327,390.782 1248.759,387.389 C1252.191,383.998 1254.681,379.071 1256.230,372.611 L1286.962,380.976 C1284.897,388.738 1281.646,395.221 1277.208,400.425 C1272.769,405.631 1267.261,409.557 1260.681,412.206 C1254.101,414.855 1245.727,416.180 1235.561,416.180 C1223.226,416.180 1213.150,414.566 1205.332,411.338 C1197.513,408.111 1190.765,402.434 1185.088,394.306 C1179.411,386.178 1176.573,375.775 1176.573,363.095 C1176.573,346.191 1181.566,333.198 1191.552,324.119 C1201.538,315.039 1215.666,310.499 1233.935,310.499 C1248.230,310.499 1259.468,313.102 1267.648,318.307 C1275.827,323.512 1281.904,331.506 1285.878,342.287 L1254.914,348.491 C1253.830,345.378 1252.694,343.101 1251.507,341.660 C1249.546,339.244 1247.146,337.384 1244.308,336.083 C1241.469,334.782 1238.296,334.131 1234.787,334.131 C1226.839,334.131 1220.749,337.010 1216.518,342.765 C1213.317,347.036 1211.718,353.743 1211.718,362.886 C1211.718,374.213 1213.627,381.977 1217.446,386.177 C1221.265,390.378 1226.632,392.478 1233.548,392.478 ZM1111.083,345.703 C1126.411,348.677 1137.390,351.687 1144.022,354.730 C1150.653,357.775 1155.479,361.551 1158.498,366.058 C1161.517,370.566 1163.026,375.608 1163.026,381.185 C1163.026,387.738 1161.014,393.780 1156.988,399.310 C1152.963,404.841 1147.337,409.034 1140.112,411.893 C1132.887,414.751 1123.779,416.180 1112.786,416.180 C1093.484,416.180 1080.119,412.834 1072.687,406.142 C1065.256,399.449 1061.049,390.945 1060.069,380.628 L1093.433,378.745 C1094.156,383.625 1095.626,387.344 1097.846,389.899 C1101.458,394.036 1106.619,396.103 1113.328,396.103 C1118.333,396.103 1122.192,395.047 1124.901,392.931 C1127.611,390.817 1128.965,388.365 1128.965,385.577 C1128.965,382.928 1127.675,380.558 1125.095,378.467 C1122.514,376.375 1116.527,374.400 1107.135,372.541 C1091.756,369.428 1080.789,365.291 1074.235,360.133 C1067.629,354.974 1064.327,348.399 1064.327,340.405 C1064.327,335.154 1066.017,330.192 1069.397,325.522 C1072.777,320.851 1077.860,317.180 1084.647,314.507 C1091.433,311.836 1100.736,310.499 1112.554,310.499 C1127.055,310.499 1138.112,312.928 1145.725,317.784 C1153.337,322.641 1157.865,330.366 1159.311,340.962 L1126.256,342.705 C1125.378,338.104 1123.533,334.758 1120.721,332.667 C1117.908,330.576 1114.025,329.530 1109.071,329.530 C1104.993,329.530 1101.922,330.309 1099.859,331.865 C1097.794,333.423 1096.762,335.316 1096.762,337.547 C1096.762,339.174 1097.614,340.638 1099.317,341.938 C1100.968,343.287 1104.890,344.542 1111.083,345.703 ZM1032.124,403.527 C1027.220,407.595 1021.956,410.301 1016.332,411.649 C1008.641,413.508 1001.674,414.437 995.431,414.437 L943.333,414.437 L943.333,312.242 L995.431,312.242 C1005.700,312.242 1013.996,313.497 1020.318,316.006 C1026.640,318.516 1031.865,322.118 1035.994,326.811 C1040.122,331.506 1043.116,336.966 1044.974,343.193 C1046.832,349.421 1047.761,356.020 1047.761,362.991 C1047.761,373.912 1046.379,382.382 1043.619,388.400 C1040.858,394.419 1037.026,399.461 1032.124,403.527 ZM1006.655,341.381 C1002.733,337.384 996.230,335.386 987.148,335.386 L978.400,335.386 L978.400,391.224 L986.993,391.224 C994.320,391.224 999.533,390.492 1002.630,389.028 C1005.726,387.564 1008.152,385.008 1009.907,381.360 C1011.660,377.712 1012.539,371.798 1012.539,363.618 C1012.539,352.790 1010.577,345.378 1006.655,341.381 ZM888.061,385.995 L921.735,385.995 L921.735,414.437 L888.061,414.437 L888.061,385.995 ZM791.219,358.325 L791.219,414.437 L758.242,414.437 L758.242,312.242 L790.987,312.242 L833.718,368.781 L833.718,312.242 L866.773,312.242 L866.773,414.437 L833.718,414.437 L791.219,358.325 ZM713.073,409.801 C704.635,414.054 694.119,416.180 681.528,416.180 C668.728,416.180 658.136,414.344 649.750,410.673 C641.363,407.002 634.564,401.192 629.352,393.245 C624.139,385.298 621.534,375.354 621.534,363.409 C621.534,346.725 626.694,333.737 637.016,324.441 C647.337,315.147 661.710,310.499 680.134,310.499 C699.023,310.499 713.576,315.065 723.794,324.197 C734.012,333.329 739.122,346.121 739.122,362.573 C739.122,374.517 736.889,384.311 732.426,391.955 C727.961,399.601 721.511,405.549 713.073,409.801 ZM697.590,341.067 C693.281,336.629 687.436,334.410 680.057,334.410 C672.986,334.410 667.309,336.664 663.026,341.172 C658.742,345.680 656.601,353.139 656.601,363.549 C656.601,373.866 658.730,381.279 662.988,385.786 C667.245,390.294 673.038,392.548 680.366,392.548 C687.901,392.548 693.732,390.341 697.861,385.926 C701.990,381.511 704.054,373.587 704.054,362.154 C704.054,352.534 701.899,345.506 697.590,341.067 ZM574.855,336.501 L552.726,414.437 L526.730,414.437 L504.643,336.501 L504.643,414.437 L475.923,414.437 L475.923,312.242 L522.041,312.242 L539.826,374.423 L557.484,312.242 L603.574,312.242 L603.574,414.437 L574.855,414.437 L574.855,336.501 ZM416.007,312.242 L451.151,312.242 L451.151,414.437 L416.007,414.437 L416.007,312.242 ZM345.020,345.703 C360.348,348.677 371.327,351.687 377.959,354.730 C384.590,357.775 389.416,361.551 392.435,366.058 C395.454,370.566 396.963,375.608 396.963,381.185 C396.963,387.738 394.951,393.780 390.925,399.310 C386.900,404.841 381.274,409.034 374.050,411.893 C366.824,414.751 357.716,416.180 346.723,416.180 C327.421,416.180 314.056,412.834 306.624,406.142 C299.193,399.449 294.986,390.945 294.006,380.628 L327.371,378.745 C328.093,383.625 329.563,387.344 331.783,389.899 C335.395,394.036 340.556,396.103 347.265,396.103 C352.270,396.103 356.129,395.047 358.838,392.931 C361.548,390.817 362.902,388.365 362.902,385.577 C362.902,382.928 361.612,380.558 359.032,378.467 C356.451,376.375 350.465,374.400 341.072,372.541 C325.693,369.428 314.726,365.291 308.173,360.133 C301.566,354.974 298.264,348.399 298.264,340.405 C298.264,335.154 299.954,330.192 303.334,325.522 C306.714,320.851 311.798,317.180 318.584,314.507 C325.370,311.836 334.673,310.499 346.491,310.499 C360.992,310.499 372.049,312.928 379.662,317.784 C387.274,322.641 391.802,330.366 393.248,340.962 L360.193,342.705 C359.315,338.104 357.470,334.758 354.658,332.667 C351.845,330.576 347.962,329.530 343.008,329.530 C338.930,329.530 335.859,330.309 333.796,331.865 C331.731,333.423 330.699,335.316 330.699,337.547 C330.699,339.174 331.551,340.638 333.254,341.938 C334.905,343.287 338.827,344.542 345.020,345.703 ZM191.823,414.437 L156.678,414.437 L156.678,371.635 L112.477,312.242 L151.429,312.242 L174.293,346.718 L197.205,312.242 L235.948,312.242 L191.823,371.635 L191.823,414.437 ZM105.587,385.368 C105.587,390.666 104.219,395.430 101.484,399.658 C98.748,403.888 95.007,407.234 90.260,409.697 C87.318,411.230 82.879,412.346 76.945,413.043 C69.049,413.973 63.810,414.437 61.230,414.437 L0.695,414.437 L0.695,312.242 L66.339,312.242 C77.280,312.242 85.679,314.682 91.537,319.561 C97.393,324.441 100.323,330.483 100.323,337.686 C100.323,343.728 98.233,348.909 94.053,353.231 C91.266,356.114 87.188,358.390 81.822,360.063 C89.975,361.830 95.975,364.862 99.820,369.160 C103.664,373.459 105.587,378.862 105.587,385.368 ZM62.740,335.455 C60.598,333.782 56.869,332.946 51.554,332.946 L36.072,332.946 L36.072,352.325 L51.322,352.325 C56.791,352.325 60.598,351.478 62.740,349.781 C64.881,348.085 65.952,345.633 65.952,342.426 C65.952,339.453 64.881,337.128 62.740,335.455 ZM66.765,374.528 C64.313,372.693 60.017,371.774 53.876,371.774 L36.072,371.774 L36.072,392.478 L53.954,392.478 C59.992,392.478 64.249,391.514 66.726,389.585 C69.204,387.657 70.442,385.066 70.442,381.813 C70.442,378.792 69.216,376.364 66.765,374.528 Z"/>
<path fill-rule="evenodd"  fill="rgb(255, 255, 255)"
 d="M1410.150,162.489 C1405.643,159.025 1399.423,157.293 1391.487,157.293 C1384.956,157.293 1380.036,158.583 1376.731,161.161 C1373.423,163.740 1371.771,166.876 1371.771,170.570 C1371.771,173.265 1373.135,175.689 1375.863,177.843 C1378.508,180.076 1384.791,182.154 1394.711,184.077 C1419.264,189.004 1436.851,193.988 1447.474,199.028 C1458.096,204.070 1465.827,210.324 1470.663,217.788 C1475.499,225.254 1477.917,233.604 1477.917,242.840 C1477.917,253.692 1474.693,263.698 1468.245,272.856 C1461.797,282.016 1452.785,288.961 1441.212,293.695 C1429.637,298.428 1415.048,300.795 1397.439,300.795 C1366.520,300.795 1345.110,295.253 1333.206,284.170 C1321.302,273.087 1314.563,259.003 1312.993,241.916 L1366.439,238.799 C1367.595,246.881 1369.951,253.039 1373.507,257.271 C1379.292,264.122 1387.560,267.546 1398.307,267.546 C1406.325,267.546 1412.506,265.796 1416.846,262.293 C1421.186,258.792 1423.356,254.731 1423.356,250.113 C1423.356,245.726 1421.289,241.801 1417.156,238.338 C1413.021,234.874 1403.432,231.604 1388.387,228.525 C1363.751,223.369 1346.184,216.518 1335.686,207.975 C1325.103,199.432 1319.814,188.542 1319.814,175.303 C1319.814,166.607 1322.520,158.390 1327.936,150.655 C1333.349,142.920 1341.493,136.841 1352.364,132.414 C1363.234,127.990 1378.136,125.776 1397.067,125.776 C1420.297,125.776 1438.008,129.799 1450.203,137.841 C1462.395,145.884 1469.650,158.679 1471.965,176.227 L1419.016,179.113 C1417.609,171.493 1414.654,165.952 1410.150,162.489 ZM1240.080,297.909 L1183.907,297.909 L1183.907,170.454 L1126.617,170.454 L1126.617,128.662 L1297.369,128.662 L1297.369,170.454 L1240.080,170.454 L1240.080,297.909 ZM1026.547,261.543 C1037.293,261.543 1045.415,258.734 1050.914,253.115 C1056.410,247.498 1060.400,239.339 1062.880,228.640 L1112.109,242.494 C1108.802,255.348 1103.593,266.085 1096.485,274.704 C1089.374,283.324 1080.550,289.827 1070.010,294.214 C1059.470,298.601 1046.056,300.795 1029.771,300.795 C1010.012,300.795 993.872,298.121 981.348,292.777 C968.824,287.432 958.014,278.030 948.921,264.569 C939.826,251.109 935.281,233.880 935.281,212.881 C935.281,184.885 943.279,163.369 959.276,148.332 C975.272,133.295 997.902,125.776 1027.167,125.776 C1050.065,125.776 1068.067,130.087 1081.170,138.706 C1094.272,147.327 1104.006,160.566 1110.373,178.420 L1060.772,188.695 C1059.036,183.540 1057.216,179.768 1055.316,177.381 C1052.173,173.380 1048.329,170.301 1043.783,168.145 C1039.236,165.992 1034.152,164.913 1028.531,164.913 C1015.799,164.913 1006.044,169.681 999.266,179.212 C994.140,186.285 991.578,197.393 991.578,212.535 C991.578,231.294 994.636,244.151 1000.754,251.107 C1006.871,258.065 1015.468,261.543 1026.547,261.543 ZM758.329,128.662 L908.868,128.662 L908.868,164.798 L814.626,164.798 L814.626,191.697 L902.048,191.697 L902.048,226.216 L814.626,226.216 L814.626,259.580 L911.596,259.580 L911.596,297.909 L758.329,297.909 L758.329,128.662 ZM693.290,290.296 C682.170,297.295 667.931,300.795 650.571,300.795 C632.218,300.795 617.999,298.486 607.914,293.868 C597.827,289.250 590.036,282.496 584.539,273.607 C579.040,264.717 575.797,253.732 574.805,240.647 L628.498,233.835 C628.579,241.301 629.283,246.843 630.606,250.460 C631.928,254.078 634.160,257.002 637.302,259.234 C639.451,260.697 642.510,261.427 646.479,261.427 C652.760,261.427 657.369,259.255 660.305,254.910 C663.238,250.566 664.707,243.241 664.707,232.937 L664.707,128.662 L721.004,128.662 L721.004,220.613 C721.004,239.918 719.164,254.609 715.486,264.685 C711.807,274.761 704.407,283.297 693.290,290.296 ZM517.082,290.231 C503.565,297.274 486.720,300.795 466.550,300.795 C446.047,300.795 429.080,297.755 415.647,291.674 C402.212,285.595 391.321,275.974 382.973,262.812 C374.622,249.651 370.448,233.182 370.448,213.401 C370.448,185.771 378.714,164.260 395.249,148.866 C411.782,133.473 434.806,125.776 464.318,125.776 C494.575,125.776 517.888,133.338 534.256,148.462 C550.624,163.585 558.809,184.770 558.809,212.016 C558.809,231.797 555.232,248.017 548.082,260.677 C540.931,273.338 530.598,283.189 517.082,290.231 ZM492.281,176.400 C485.378,169.051 476.015,165.375 464.194,165.375 C452.868,165.375 443.775,169.109 436.914,176.573 C430.051,184.039 426.622,196.392 426.622,213.632 C426.622,230.718 430.032,242.995 436.852,250.460 C443.672,257.926 452.951,261.658 464.690,261.658 C476.759,261.658 486.100,258.003 492.715,250.690 C499.328,243.379 502.635,230.256 502.635,211.323 C502.635,195.391 499.183,183.751 492.281,176.400 ZM328.805,238.352 C332.728,242.898 335.352,246.403 336.673,248.867 L363.876,297.909 L300.404,297.909 L270.378,246.188 C266.575,239.492 263.186,235.145 260.210,233.142 C256.158,230.527 251.570,229.217 246.446,229.217 L241.485,229.217 L241.485,297.909 L185.064,297.909 L185.064,128.662 L278.686,128.662 C296.047,128.662 309.315,130.048 318.491,132.819 C327.667,135.589 335.065,140.727 340.688,148.231 C346.308,155.735 349.120,164.875 349.120,175.650 C349.120,185.041 346.969,193.140 342.668,199.951 C338.366,206.763 332.451,212.286 324.926,216.518 C320.128,219.213 313.552,221.444 305.198,223.214 C311.888,225.296 316.763,227.376 319.820,229.454 C321.886,230.841 324.879,233.806 328.805,238.352 ZM287.118,167.222 C283.398,164.298 276.412,162.835 266.162,162.835 L241.485,162.835 L241.485,197.238 L265.170,197.238 C267.731,197.238 272.692,196.470 280.050,194.929 C283.770,194.237 286.808,192.467 289.164,189.619 C291.521,186.772 292.699,183.500 292.699,179.806 C292.699,174.342 290.839,170.148 287.118,167.222 ZM87.846,235.105 L57.093,235.105 L57.093,297.909 L0.672,297.909 L0.672,128.662 L94.046,128.662 C114.383,128.662 129.614,133.165 139.741,142.170 C149.867,151.175 154.931,163.989 154.931,180.614 C154.931,197.700 149.413,211.054 138.377,220.674 C127.341,230.296 110.496,235.105 87.846,235.105 ZM94.542,168.607 C90.739,164.913 83.587,163.066 73.090,163.066 L57.093,163.066 L57.093,200.817 L70.858,200.817 C81.687,200.817 89.291,199.067 93.674,195.564 C98.055,192.063 100.246,187.580 100.246,182.115 C100.246,176.804 98.344,172.302 94.542,168.607 Z"/>
</svg>